<svg width="32" height="32" viewBox="0 0 32 32" fill="none" xmlns="http://www.w3.org/2000/svg">
<path d="M8 21.3912V15.6347C8 13.3446 8.91309 11.1484 10.5384 9.52904C12.1637 7.90972 14.3681 7 16.6667 7C18.9652 7 21.1696 7.90972 22.7949 9.52904C24.4202 11.1484 25.3333 13.3446 25.3333 15.6347V21.3912" stroke="white" stroke-width="1.5" stroke-linecap="round" stroke-linejoin="round"/>
<path d="M25.3333 22.352C25.3333 22.8609 25.1304 23.3489 24.7692 23.7088C24.4081 24.0686 23.9182 24.2708 23.4074 24.2708H22.4444C21.9337 24.2708 21.4438 24.0686 21.0826 23.7088C20.7214 23.3489 20.5185 22.8609 20.5185 22.352V19.4738C20.5185 18.9648 20.7214 18.4768 21.0826 18.1169C21.4438 17.7571 21.9337 17.5549 22.4444 17.5549H25.3333V22.352ZM8 22.352C8 22.8609 8.20291 23.3489 8.56409 23.7088C8.92527 24.0686 9.41514 24.2708 9.92593 24.2708H10.8889C11.3997 24.2708 11.8895 24.0686 12.2507 23.7088C12.6119 23.3489 12.8148 22.8609 12.8148 22.352V19.4738C12.8148 18.9648 12.6119 18.4768 12.2507 18.1169C11.8895 17.7571 11.3997 17.5549 10.8889 17.5549H8V22.352Z" stroke="white" stroke-width="1.5" stroke-linecap="round" stroke-linejoin="round"/>
</svg>
