<svg width="22" height="22" viewBox="0 0 22 22" fill="none" xmlns="http://www.w3.org/2000/svg">
<path d="M11 21C16.5228 21 21 16.5228 21 11C21 5.47715 16.5228 1 11 1C5.47715 1 1 5.47715 1 11C1 16.5228 5.47715 21 11 21Z" stroke="#BFC3C7" stroke-width="1.5" stroke-linecap="round" stroke-linejoin="round"/>
<path d="M8.08594 8.00057C8.32104 7.33224 8.78509 6.76868 9.39589 6.4097C10.0067 6.05073 10.7248 5.91951 11.4231 6.03928C12.1214 6.15906 12.7548 6.52209 13.211 7.0641C13.6673 7.6061 13.917 8.29209 13.9159 9.00057C13.9159 11.0006 10.9159 12.0006 10.9159 12.0006" stroke="#BFC3C7" stroke-width="1.5" stroke-linecap="round" stroke-linejoin="round"/>
<path d="M10.9961 16H11.0061" stroke="#BFC3C7" stroke-width="1.5" stroke-linecap="round" stroke-linejoin="round"/>
</svg>
