<svg width="20" height="20" viewBox="0 0 20 20" fill="none" xmlns="http://www.w3.org/2000/svg">
<path d="M17.1963 7.2998H9.09677C8.10271 7.2998 7.29688 8.10564 7.29688 9.0997V17.1992C7.29688 18.1933 8.10271 18.9991 9.09677 18.9991H17.1963C18.1903 18.9991 18.9962 18.1933 18.9962 17.1992V9.0997C18.9962 8.10564 18.1903 7.2998 17.1963 7.2998Z" stroke="#BFC3C7" stroke-width="1.5" stroke-linecap="round" stroke-linejoin="round"/>
<path d="M3.69984 12.6993H2.79989C2.32253 12.6993 1.86472 12.5097 1.52718 12.1721C1.18963 11.8346 1 11.3768 1 10.8994V2.79989C1 2.32253 1.18963 1.86472 1.52718 1.52718C1.86472 1.18963 2.32253 1 2.79989 1H10.8994C11.3768 1 11.8346 1.18963 12.1721 1.52718C12.5097 1.86472 12.6993 2.32253 12.6993 2.79989V3.69984" stroke="#BFC3C7" stroke-width="1.5" stroke-linecap="round" stroke-linejoin="round"/>
</svg>
