<svg width="26" height="34" viewBox="0 0 26 34" fill="none" xmlns="http://www.w3.org/2000/svg">
<path d="M15.1667 9.03125V0H1.625C0.724479 0 0 0.710547 0 1.59375V32.4062C0 33.2895 0.724479 34 1.625 34H24.375C25.2755 34 26 33.2895 26 32.4062V10.625H16.7917C15.8979 10.625 15.1667 9.90781 15.1667 9.03125ZM19.5799 23.3757H15.1667V28.6882C15.1667 29.2752 14.6819 29.7507 14.0833 29.7507H11.9167C11.3181 29.7507 10.8333 29.2752 10.8333 28.6882V23.3757H6.4201C5.45323 23.3757 4.97047 22.2275 5.65703 21.5588L12.1855 15.2037C12.6357 14.7648 13.3629 14.7648 13.8132 15.2037L20.3416 21.5588C21.0289 22.2275 20.5468 23.3757 19.5799 23.3757ZM25.526 6.97266L18.8974 0.464844C18.5927 0.166016 18.1797 0 17.7464 0H17.3333V8.5H26V8.09492C26 7.67656 25.8307 7.27148 25.526 6.97266Z" fill="#E0E1E2"/>
</svg>
