<svg width="36" height="36" viewBox="0 0 36 36" fill="none" xmlns="http://www.w3.org/2000/svg">
<path d="M7.5 24.75V17.25C7.5 14.2663 8.68526 11.4048 10.795 9.29505C12.9048 7.18526 15.7663 6 18.75 6C21.7337 6 24.5952 7.18526 26.705 9.29505C28.8147 11.4048 30 14.2663 30 17.25V24.75" stroke="white" stroke-width="2" stroke-linecap="round" stroke-linejoin="round"/>
<path d="M30 26.0005C30 26.6635 29.7366 27.2994 29.2678 27.7683C28.7989 28.2371 28.163 28.5005 27.5 28.5005H26.25C25.587 28.5005 24.9511 28.2371 24.4822 27.7683C24.0134 27.2994 23.75 26.6635 23.75 26.0005V22.2505C23.75 21.5874 24.0134 20.9516 24.4822 20.4827C24.9511 20.0139 25.587 19.7505 26.25 19.7505H30V26.0005ZM7.5 26.0005C7.5 26.6635 7.76339 27.2994 8.23223 27.7683C8.70107 28.2371 9.33696 28.5005 10 28.5005H11.25C11.913 28.5005 12.5489 28.2371 13.0178 27.7683C13.4866 27.2994 13.75 26.6635 13.75 26.0005V22.2505C13.75 21.5874 13.4866 20.9516 13.0178 20.4827C12.5489 20.0139 11.913 19.7505 11.25 19.7505H7.5V26.0005Z" stroke="white" stroke-width="2" stroke-linecap="round" stroke-linejoin="round"/>
</svg>
