<svg width="48" height="48" viewBox="0 0 48 48" fill="none" xmlns="http://www.w3.org/2000/svg">
<path d="M25.7342 30.8641L39.158 38.3825C40.6084 39.1954 41.2392 38.6946 41.2392 38.6946C42.5335 37.6345 41.7855 36.75 41.7855 36.75C41.7855 36.75 41.1612 35.9305 40.2441 34.7338L24.9668 30.3113C25.3245 30.669 25.7342 30.8641 25.7342 30.8641Z" fill="#9FF0F7"/>
<path d="M40.2437 34.7268C38.0519 31.8521 34.1822 26.7792 33.1546 25.3809C31.6977 23.4037 30.7287 24.0216 30.7287 24.0216L25.4932 27.5401C23.9908 28.7823 24.407 29.7449 24.9663 30.3042L40.2437 34.7268Z" fill="url(#paint0_linear_310_3546)"/>
<path d="M16.7584 28.2054L3.34766 35.7562C1.90383 36.5757 2.00138 37.3757 2.00138 37.3757C2.23552 39.0341 3.38018 38.8585 3.38018 38.8585C3.38018 38.8585 4.40127 38.748 5.90364 38.5919L17.6299 27.8477C17.1356 27.9647 16.7584 28.2119 16.7584 28.2119V28.2054Z" fill="#9FF0F7"/>
<path d="M5.90332 38.5849C9.4999 38.2077 15.8476 37.5443 17.5711 37.3948C20.0165 37.1801 19.9905 36.029 19.9905 36.029L19.7108 29.7268C19.4311 27.7952 18.3905 27.6521 17.6231 27.8342L5.90332 38.5849Z" fill="url(#paint1_linear_310_3546)"/>
<path d="M23.6264 21.5387V6.1508C23.6264 4.49234 22.8785 4.18666 22.8785 4.18666C21.3176 3.57531 20.9143 4.66143 20.9143 4.66143C20.9143 4.66143 20.5046 5.60448 19.9062 6.99629L23.5158 22.4817C23.6524 21.994 23.6264 21.5387 23.6264 21.5387Z" fill="#9FF0F7"/>
<path d="M19.9058 6.98975C18.4749 10.3067 15.9385 16.1666 15.2166 17.7405C14.202 19.9778 15.2166 20.5176 15.2166 20.5176L20.8423 23.3662C22.6634 24.0686 23.2942 23.2361 23.5089 22.4752L19.8993 6.98975H19.9058Z" fill="url(#paint2_linear_310_3546)"/>
<path d="M23.8801 31.502H20.8818V47.5662H23.8801V31.502Z" fill="url(#paint3_linear_310_3546)"/>
<path d="M24.0817 26.9495C24.0817 26.0659 23.3654 25.3496 22.4818 25.3496C21.5981 25.3496 20.8818 26.0659 20.8818 26.9495C20.8818 27.8331 21.5981 28.5495 22.4818 28.5495C23.3654 28.5495 24.0817 27.8331 24.0817 26.9495Z" fill="url(#paint4_linear_310_3546)"/>
<defs>
<linearGradient id="paint0_linear_310_3546" x1="28.5853" y1="31.4741" x2="31.6296" y2="26.0242" gradientUnits="userSpaceOnUse">
<stop stop-color="#E0EAF3"/>
<stop offset="0.171875" stop-color="white"/>
</linearGradient>
<linearGradient id="paint1_linear_310_3546" x1="7.8536" y1="38.3045" x2="6.74153" y2="30.5577" gradientUnits="userSpaceOnUse">
<stop stop-color="#E0EAF3"/>
<stop offset="0.171875" stop-color="white"/>
</linearGradient>
<linearGradient id="paint2_linear_310_3546" x1="16.3901" y1="21.2315" x2="20.5364" y2="10.7436" gradientUnits="userSpaceOnUse">
<stop stop-color="#E0EAF3"/>
<stop offset="0.171875" stop-color="white"/>
</linearGradient>
<linearGradient id="paint3_linear_310_3546" x1="20.7808" y1="41.4749" x2="22.4882" y2="41.4749" gradientUnits="userSpaceOnUse">
<stop stop-color="#E0EAF3"/>
<stop offset="0.59375" stop-color="white"/>
</linearGradient>
<linearGradient id="paint4_linear_310_3546" x1="22.4882" y1="28.3041" x2="21.3597" y2="25.9089" gradientUnits="userSpaceOnUse">
<stop stop-color="#E0EAF3"/>
<stop offset="0.171875" stop-color="white"/>
</linearGradient>
</defs>
</svg>
