<svg width="36" height="36" viewBox="0 0 36 36" fill="none" xmlns="http://www.w3.org/2000/svg">
<path d="M27.6 11.1328H7.06667C5.64914 11.1328 4.5 12.2819 4.5 13.6995V26.5328C4.5 27.9503 5.64914 29.0995 7.06667 29.0995H27.6C29.0175 29.0995 30.1667 27.9503 30.1667 26.5328V13.6995C30.1667 12.2819 29.0175 11.1328 27.6 11.1328Z" stroke="white" stroke-width="2" stroke-linecap="round" stroke-linejoin="round"/>
<path d="M22.4659 29.1V8.56667C22.4659 7.88594 22.1955 7.2331 21.7141 6.75176C21.2328 6.27042 20.5799 6 19.8992 6H14.7659C14.0852 6 13.4323 6.27042 12.951 6.75176C12.4696 7.2331 12.1992 7.88594 12.1992 8.56667V29.1" stroke="white" stroke-width="2" stroke-linecap="round" stroke-linejoin="round"/>
</svg>
