<svg width="32" height="32" viewBox="0 0 32 32" fill="none" xmlns="http://www.w3.org/2000/svg">
<path fill-rule="evenodd" clip-rule="evenodd" d="M11.6152 10.8683C11.6152 8.77827 13.3095 7.08398 15.3995 7.08398C17.4895 7.08398 19.1838 8.77827 19.1838 10.8683C19.1838 12.9583 17.4895 14.6526 15.3995 14.6526C13.3095 14.6526 11.6152 12.9583 11.6152 10.8683ZM15.3995 5.58398C12.4811 5.58398 10.1152 7.94984 10.1152 10.8683C10.1152 13.7867 12.4811 16.1526 15.3995 16.1526C18.3179 16.1526 20.6838 13.7867 20.6838 10.8683C20.6838 7.94984 18.3179 5.58398 15.3995 5.58398ZM10.8663 19.1865C9.46484 19.1865 8.12076 19.7433 7.12976 20.7343C6.13877 21.7253 5.58203 23.0693 5.58203 24.4708V26.7379C5.58203 27.1522 5.91782 27.4879 6.33203 27.4879C6.74624 27.4879 7.08203 27.1522 7.08203 26.7379V24.4708C7.08203 23.4672 7.48073 22.5046 8.19042 21.7949C8.90011 21.0852 9.86266 20.6865 10.8663 20.6865H19.9349C20.9385 20.6865 21.9011 21.0852 22.6108 21.7949C23.3205 22.5046 23.7192 23.4672 23.7192 24.4708V26.7379C23.7192 27.1522 24.055 27.4879 24.4692 27.4879C24.8834 27.4879 25.2192 27.1522 25.2192 26.7379V24.4708C25.2192 23.0693 24.6624 21.7253 23.6714 20.7343C22.6804 19.7433 21.3364 19.1865 19.9349 19.1865H10.8663Z" fill="#222222"/>
</svg>
