<svg width="24" height="24" viewBox="0 0 24 24" fill="none" xmlns="http://www.w3.org/2000/svg">
<path d="M0 0H24V24H0V0Z" fill="white" fill-opacity="0.01"/>
<path d="M12.0011 20.5725C14.368 20.5725 16.5109 19.6131 18.062 18.062C19.6131 16.5109 20.5725 14.368 20.5725 12.0011C20.5725 9.6342 19.6131 7.49134 18.062 5.9402C16.5109 4.38908 14.368 3.42969 12.0011 3.42969C9.6342 3.42969 7.49134 4.38908 5.9402 5.9402C4.38908 7.49134 3.42969 9.6342 3.42969 12.0011C3.42969 14.368 4.38908 16.5109 5.9402 18.062C7.49134 19.6131 9.6342 20.5725 12.0011 20.5725Z" fill="#E0E1E2"/>
<path fill-rule="evenodd" clip-rule="evenodd" d="M12 17.3574C12.6904 17.3574 13.25 16.7978 13.25 16.1074C13.25 15.4171 12.6904 14.8574 12 14.8574C11.3097 14.8574 10.75 15.4171 10.75 16.1074C10.75 16.7978 11.3097 17.3574 12 17.3574Z" fill="white"/>
<path d="M12.0469 8.30859L12.0469 12.88" stroke="white" stroke-width="1.5" stroke-linecap="round" stroke-linejoin="round"/>
</svg>
