<svg width="48" height="48" viewBox="0 0 48 48" fill="none" xmlns="http://www.w3.org/2000/svg">
<path d="M27.9201 29.1184L42.0164 37.0134C43.5394 37.867 44.2019 37.3412 44.2019 37.3412C45.561 36.2279 44.7756 35.2991 44.7756 35.2991C44.7756 35.2991 44.1199 34.4386 43.1569 33.182L27.1143 28.5378C27.4899 28.9135 27.9201 29.1184 27.9201 29.1184Z" fill="#9FF0F7"/>
<path d="M43.1576 33.1751C40.8561 30.1564 36.7925 24.8294 35.7134 23.361C34.1836 21.2848 33.166 21.9336 33.166 21.9336L27.6682 25.6284C26.0905 26.9329 26.5276 27.9437 27.115 28.531L43.1576 33.1751Z" fill="url(#paint0_linear_310_3528)"/>
<path d="M18.4958 26.3268L4.41322 34.2559C2.89705 35.1165 2.9995 35.9565 2.9995 35.9565C3.24536 37.698 4.44737 37.5136 4.44737 37.5136C4.44737 37.5136 5.51961 37.3975 7.09725 37.2336L19.411 25.9512C18.8919 26.0741 18.4958 26.3336 18.4958 26.3336V26.3268Z" fill="#9FF0F7"/>
<path d="M7.09863 37.2265C10.8754 36.8304 17.5411 36.1338 19.3509 35.9767C21.9188 35.7514 21.8915 34.5425 21.8915 34.5425L21.5978 27.9247C21.3042 25.8963 20.2114 25.746 19.4055 25.9373L7.09863 37.2265Z" fill="url(#paint1_linear_310_3528)"/>
<path d="M25.7053 19.3265V3.16772C25.7053 1.42618 24.9199 1.10519 24.9199 1.10519C23.2808 0.46321 22.8574 1.60375 22.8574 1.60375C22.8574 1.60375 22.4271 2.59404 21.7988 4.05557L25.5892 20.3168C25.7327 19.8046 25.7053 19.3265 25.7053 19.3265Z" fill="#9FF0F7"/>
<path d="M21.799 4.0481C20.2965 7.53118 17.633 13.6846 16.8749 15.3374C15.8095 17.6868 16.8749 18.2536 16.8749 18.2536L22.7825 21.245C24.6948 21.9826 25.3572 21.1084 25.5826 20.3093L21.7922 4.0481H21.799Z" fill="url(#paint2_linear_310_3528)"/>
<path d="M27 30H23V47H27V30Z" fill="url(#paint3_linear_310_3528)"/>
<path d="M26 25C26 23.8954 25.1046 23 24 23C22.8954 23 22 23.8954 22 25C22 26.1046 22.8954 27 24 27C25.1046 27 26 26.1046 26 25Z" fill="url(#paint4_linear_310_3528)"/>
<defs>
<linearGradient id="paint0_linear_310_3528" x1="30.9152" y1="29.7595" x2="34.1121" y2="24.0365" gradientUnits="userSpaceOnUse">
<stop stop-color="#C4D8EA"/>
<stop offset="0.171875" stop-color="#DDEBF9"/>
</linearGradient>
<linearGradient id="paint1_linear_310_3528" x1="9.14662" y1="36.9321" x2="7.97883" y2="28.7972" gradientUnits="userSpaceOnUse">
<stop stop-color="#C4D8EA"/>
<stop offset="0.171875" stop-color="#DDEBF9"/>
</linearGradient>
<linearGradient id="paint2_linear_310_3528" x1="18.1072" y1="19.0033" x2="22.4613" y2="7.98999" gradientUnits="userSpaceOnUse">
<stop stop-color="#C4D8EA"/>
<stop offset="0.171875" stop-color="#DDEBF9"/>
</linearGradient>
<linearGradient id="paint3_linear_310_3528" x1="22.8653" y1="40.5538" x2="26" y2="40.5538" gradientUnits="userSpaceOnUse">
<stop stop-color="#C4D8EA"/>
<stop offset="1" stop-color="#DDEBF9" stop-opacity="0.58"/>
</linearGradient>
<linearGradient id="paint4_linear_310_3528" x1="24.008" y1="26.6933" x2="22.5974" y2="23.6991" gradientUnits="userSpaceOnUse">
<stop stop-color="#C4D8EA"/>
<stop offset="0.171875" stop-color="#D6EAFE"/>
</linearGradient>
</defs>
</svg>
