<svg width="70" height="70" viewBox="0 0 70 70" fill="none" xmlns="http://www.w3.org/2000/svg">
<circle cx="35" cy="35" r="35" fill="#F1F4F6"/>
<path d="M14 44V27.2316H21.2489C25.0616 27.2316 27.5564 29.5824 27.5564 33.1144C27.5564 36.7044 24.991 38.9625 21.1077 38.951H18.4717V44H14ZM18.4717 35.5232H20.2133C21.8961 35.5116 22.8846 34.5851 22.8728 33.1144C22.8846 31.6553 21.8961 30.7636 20.2133 30.752H18.4717V35.5232Z" fill="white"/>
<path d="M28.8395 44V40.827L35.1705 35.5926C36.4649 34.5157 37.2534 33.7282 37.2652 32.5123C37.2534 31.2037 36.312 30.4046 35.0058 30.4046C33.6878 30.4046 32.7817 31.2268 32.7934 32.6512H28.5335C28.5218 29.154 31.0871 27 35.0058 27C39.0421 27 41.6192 29.0497 41.6192 32.1417C41.6192 34.0872 40.6425 35.72 36.7944 38.9046L35.0764 40.3638V40.4564H41.8075V44H28.8395Z" fill="white"/>
<path d="M43.4436 44V27.2316H50.6925C54.5053 27.2316 57 29.5824 57 33.1144C57 36.7044 54.4346 38.9625 50.5513 38.951H47.9154V44H43.4436ZM47.9154 35.5232H49.657C51.3398 35.5116 52.3282 34.5851 52.3165 33.1144C52.3282 31.6553 51.3398 30.7636 49.657 30.752H47.9154V35.5232Z" fill="white"/>
<path d="M14 44V27.2316H21.2489C25.0616 27.2316 27.5564 29.5824 27.5564 33.1144C27.5564 36.7044 24.991 38.9625 21.1077 38.951H18.4717V44H14ZM18.4717 35.5232H20.2133C21.8961 35.5116 22.8846 34.5851 22.8728 33.1144C22.8846 31.6553 21.8961 30.7636 20.2133 30.752H18.4717V35.5232Z" stroke="black" stroke-linecap="round" stroke-linejoin="round"/>
<path d="M28.8395 44V40.827L35.1705 35.5926C36.4649 34.5157 37.2534 33.7282 37.2652 32.5123C37.2534 31.2037 36.312 30.4046 35.0058 30.4046C33.6878 30.4046 32.7817 31.2268 32.7934 32.6512H28.5335C28.5218 29.154 31.0871 27 35.0058 27C39.0421 27 41.6192 29.0497 41.6192 32.1417C41.6192 34.0872 40.6425 35.72 36.7944 38.9046L35.0764 40.3638V40.4564H41.8075V44H28.8395Z" stroke="black" stroke-linecap="round" stroke-linejoin="round"/>
<path d="M43.4436 44V27.2316H50.6925C54.5053 27.2316 57 29.5824 57 33.1144C57 36.7044 54.4346 38.9625 50.5513 38.951H47.9154V44H43.4436ZM47.9154 35.5232H49.657C51.3398 35.5116 52.3282 34.5851 52.3165 33.1144C52.3282 31.6553 51.3398 30.7636 49.657 30.752H47.9154V35.5232Z" stroke="black" stroke-linecap="round" stroke-linejoin="round"/>
</svg>
