<svg width="24" height="24" viewBox="0 0 24 24" fill="none" xmlns="http://www.w3.org/2000/svg">
<path d="M20.3526 15.9968C20.3007 15.9391 20.2471 15.8807 20.1922 15.821C19.8143 15.4095 19.3771 14.9334 19.0007 14.1452C18.5706 13.2446 18.211 11.9087 18.211 9.80208C18.211 6.42156 16.0083 3.67655 12.9754 2.84378V2.35417C12.9754 1.34651 12.1815 0.5 11.1667 0.5C10.1519 0.5 9.35797 1.34651 9.35797 2.35417V2.84378C6.32505 3.67655 4.12234 6.42156 4.12234 9.80208C4.12234 11.9087 3.76272 13.2446 3.33265 14.1452C2.95622 14.9334 2.519 15.4095 2.1411 15.821C2.08627 15.8807 2.03268 15.9391 1.98072 15.9968L1.98064 15.9969L20.3333 17.25L20.8333 17.2532C20.8361 16.8154 20.6857 16.3666 20.3526 15.9968ZM20.3526 15.9968L19.981 16.3313L20.3524 15.9966C20.3525 15.9967 20.3526 15.9967 20.3526 15.9968ZM14.2845 19.9583V19.4583H13.7845H8.54886H8.04886V19.9583C8.04886 21.7143 9.42932 23.1667 11.1667 23.1667C12.904 23.1667 14.2845 21.7143 14.2845 19.9583Z" stroke="#666666"/>
<circle cx="18.5" cy="6.5" r="3.5" fill="#197CFF"/>
</svg>
