<svg width="36" height="36" viewBox="0 0 36 36" fill="none" xmlns="http://www.w3.org/2000/svg">
<path d="M22.8769 27.7522V25.502C22.8769 24.3084 22.4028 23.1636 21.5588 22.3196C20.7148 21.4756 19.57 21.0015 18.3764 21.0015H10.5005C9.30691 21.0015 8.16218 21.4756 7.31817 22.3196C6.47416 23.1636 6 24.3084 6 25.502V27.7522" stroke="white" stroke-width="2" stroke-linecap="round" stroke-linejoin="round"/>
<path d="M14.438 16.501C16.9236 16.501 18.9385 14.4861 18.9385 12.0005C18.9385 9.51495 16.9236 7.5 14.438 7.5C11.9525 7.5 9.9375 9.51495 9.9375 12.0005C9.9375 14.4861 11.9525 16.501 14.438 16.501Z" stroke="white" stroke-width="2" stroke-linecap="round" stroke-linejoin="round"/>
<path d="M28.5 9V18" stroke="white" stroke-width="2" stroke-linecap="round" stroke-linejoin="round"/>
<path d="M33 13.5H24" stroke="white" stroke-width="2" stroke-linecap="round" stroke-linejoin="round"/>
</svg>
