<svg width="48" height="48" viewBox="0 0 48 48" fill="none" xmlns="http://www.w3.org/2000/svg">
<path d="M37.4425 6H11.5965C10.1625 6 9 7.1625 9 8.59652V39.1217C9 40.5557 10.1625 41.7182 11.5965 41.7182H37.4425C38.8765 41.7182 40.039 40.5557 40.039 39.1217V8.59652C40.039 7.1625 38.8765 6 37.4425 6Z" fill="url(#paint0_linear_310_3621)"/>
<path d="M34.0374 8.59619H14.9901C13.5561 8.59619 12.3936 9.61931 12.3936 10.8814V13.0454C12.3936 14.3075 13.5561 15.3306 14.9901 15.3306H34.0374C35.4714 15.3306 36.6339 14.3075 36.6339 13.0454V10.8814C36.6339 9.61931 35.4714 8.59619 34.0374 8.59619Z" fill="white"/>
<path d="M15.7608 18.0461H14.9901C13.5561 18.0461 12.3936 19.0298 12.3936 20.2432V20.8953C12.3936 22.1087 13.5561 23.0924 14.9901 23.0924H15.7608C17.1948 23.0924 18.3573 22.1087 18.3573 20.8953V20.2432C18.3573 19.0298 17.1948 18.0461 15.7608 18.0461Z" fill="#A0D2FA"/>
<path d="M25.0459 18.0461H24.2752C22.8412 18.0461 21.6787 19.0298 21.6787 20.2432V20.8953C21.6787 22.1087 22.8412 23.0924 24.2752 23.0924H25.0459C26.48 23.0924 27.6425 22.1087 27.6425 20.8953V20.2432C27.6425 19.0298 26.48 18.0461 25.0459 18.0461Z" fill="#A0D2FA"/>
<path d="M34.0469 18.0461H33.2762C31.8422 18.0461 30.6797 19.0298 30.6797 20.2432V20.8953C30.6797 22.1087 31.8422 23.0924 33.2762 23.0924H34.0469C35.4809 23.0924 36.6434 22.1087 36.6434 20.8953V20.2432C36.6434 19.0298 35.4809 18.0461 34.0469 18.0461Z" fill="#A0D2FA"/>
<path d="M15.7608 25.5242H14.9901C13.5561 25.5242 12.3936 26.5078 12.3936 27.7212V28.3734C12.3936 29.5868 13.5561 30.5704 14.9901 30.5704H15.7608C17.1948 30.5704 18.3573 29.5868 18.3573 28.3734V27.7212C18.3573 26.5078 17.1948 25.5242 15.7608 25.5242Z" fill="#A0D2FA"/>
<path d="M25.0459 25.5242H24.2752C22.8412 25.5242 21.6787 26.5078 21.6787 27.7212V28.3734C21.6787 29.5868 22.8412 30.5704 24.2752 30.5704H25.0459C26.48 30.5704 27.6425 29.5868 27.6425 28.3734V27.7212C27.6425 26.5078 26.48 25.5242 25.0459 25.5242Z" fill="#A0D2FA"/>
<path d="M34.0469 25.5242H33.2762C31.8422 25.5242 30.6797 26.5078 30.6797 27.7212V28.3734C30.6797 29.5868 31.8422 30.5704 33.2762 30.5704H34.0469C35.4809 30.5704 36.6434 29.5868 36.6434 28.3734V27.7212C36.6434 26.5078 35.4809 25.5242 34.0469 25.5242Z" fill="#A0D2FA"/>
<path d="M25.0459 33.002H14.9901C13.5561 33.002 12.3936 33.9856 12.3936 35.199V35.8511C12.3936 37.0645 13.5561 38.0482 14.9901 38.0482H25.0459C26.4799 38.0482 27.6424 37.0645 27.6424 35.8511V35.199C27.6424 33.9856 26.4799 33.002 25.0459 33.002Z" fill="#A0D2FA"/>
<path d="M34.0469 33.002H33.2762C31.8422 33.002 30.6797 33.9856 30.6797 35.199V35.8511C30.6797 37.0645 31.8422 38.0482 33.2762 38.0482H34.0469C35.4809 38.0482 36.6434 37.0645 36.6434 35.8511V35.199C36.6434 33.9856 35.4809 33.002 34.0469 33.002Z" fill="#A0D2FA"/>
<defs>
<linearGradient id="paint0_linear_310_3621" x1="24.5195" y1="6" x2="24.5195" y2="41.7182" gradientUnits="userSpaceOnUse">
<stop stop-color="#77ABF8"/>
<stop offset="1" stop-color="#3A76EF"/>
</linearGradient>
</defs>
</svg>
