<svg width="36" height="36" viewBox="0 0 36 36" fill="none" xmlns="http://www.w3.org/2000/svg">
<path d="M30.0005 9.56104V16.1065H23.4551" stroke="white" stroke-width="2" stroke-linecap="round" stroke-linejoin="round"/>
<path d="M6 27.0152V20.4697H12.5454" stroke="white" stroke-width="2" stroke-linecap="round" stroke-linejoin="round"/>
<path d="M8.73818 15.0155C9.29145 13.452 10.2318 12.0541 11.4714 10.9523C12.711 9.85055 14.2096 9.08073 15.8272 8.71472C17.4448 8.34871 19.1288 8.39845 20.722 8.85928C22.3152 9.32012 23.7657 10.177 24.9381 11.3501L29.9999 16.1064M6 20.4701L11.0618 25.2264C12.2343 26.3994 13.6848 27.2564 15.278 27.7172C16.8712 28.178 18.5551 28.2278 20.1727 27.8618C21.7904 27.4958 23.2889 26.7259 24.5285 25.6241C25.7682 24.5223 26.7085 23.1245 27.2618 21.561" stroke="white" stroke-width="2" stroke-linecap="round" stroke-linejoin="round"/>
</svg>
