<svg width="70" height="70" viewBox="0 0 70 70" fill="none" xmlns="http://www.w3.org/2000/svg">
<circle cx="35" cy="35" r="35" fill="#F1F4F6"/>
<path d="M18 18H51.7824V51.5532H18V18Z" fill="white" fill-opacity="0.01"/>
<path d="M20.8164 39.6689V44.5621C20.8164 46.4924 23.9674 48.0573 27.8544 48.0573C31.7413 48.0573 34.8924 46.4924 34.8924 44.5621C34.8924 43.4188 34.8924 39.6689 34.8924 39.6689" fill="white"/>
<path d="M20.8164 39.6689V44.5621C20.8164 46.4924 23.9674 48.0573 27.8544 48.0573C31.7413 48.0573 34.8924 46.4924 34.8924 44.5621C34.8924 43.4188 34.8924 39.6689 34.8924 39.6689" stroke="black" stroke-linecap="round" stroke-linejoin="round"/>
<path d="M20.8164 34.7754V39.6686C20.8164 41.5989 23.9674 43.1637 27.8544 43.1637C31.7413 43.1637 34.8924 41.5989 34.8924 39.6686C34.8924 38.5252 34.8924 34.7754 34.8924 34.7754" fill="white"/>
<path d="M20.8164 34.7754V39.6686C20.8164 41.5989 23.9674 43.1637 27.8544 43.1637C31.7413 43.1637 34.8924 41.5989 34.8924 39.6686C34.8924 38.5252 34.8924 34.7754 34.8924 34.7754" stroke="black" stroke-linecap="round" stroke-linejoin="round"/>
<path d="M20.8164 29.8828V34.776C20.8164 36.7063 23.9674 38.2711 27.8544 38.2711C31.7413 38.2711 34.8924 36.7063 34.8924 34.776C34.8924 33.6327 34.8924 29.8828 34.8924 29.8828" fill="white"/>
<path d="M20.8164 29.8828V34.776C20.8164 36.7063 23.9674 38.2711 27.8544 38.2711C31.7413 38.2711 34.8924 36.7063 34.8924 34.776C34.8924 33.6327 34.8924 29.8828 34.8924 29.8828" stroke="black" stroke-linecap="round" stroke-linejoin="round"/>
<path d="M20.8164 24.9893V29.8824C20.8164 31.8127 23.9674 33.3776 27.8544 33.3776C31.7413 33.3776 34.8924 31.8127 34.8924 29.8824C34.8924 28.7391 34.8924 24.9893 34.8924 24.9893" fill="white"/>
<path d="M20.8164 24.9893V29.8824C20.8164 31.8127 23.9674 33.3776 27.8544 33.3776C31.7413 33.3776 34.8924 31.8127 34.8924 29.8824C34.8924 28.7391 34.8924 24.9893 34.8924 24.9893" stroke="black" stroke-linecap="round" stroke-linejoin="round"/>
<path d="M34.8945 39.6689V44.5621C34.8945 46.4924 38.0456 48.0573 41.9325 48.0573C45.8195 48.0573 48.9705 46.4924 48.9705 44.5621C48.9705 43.4188 48.9705 39.6689 48.9705 39.6689" fill="white"/>
<path d="M34.8945 39.6689V44.5621C34.8945 46.4924 38.0456 48.0573 41.9325 48.0573C45.8195 48.0573 48.9705 46.4924 48.9705 44.5621C48.9705 43.4188 48.9705 39.6689 48.9705 39.6689" stroke="black" stroke-linecap="round" stroke-linejoin="round"/>
<path d="M34.8945 34.7754V39.6686C34.8945 41.5989 38.0456 43.1637 41.9325 43.1637C45.8195 43.1637 48.9705 41.5989 48.9705 39.6686C48.9705 38.5252 48.9705 34.7754 48.9705 34.7754" fill="white"/>
<path d="M34.8945 34.7754V39.6686C34.8945 41.5989 38.0456 43.1637 41.9325 43.1637C45.8195 43.1637 48.9705 41.5989 48.9705 39.6686C48.9705 38.5252 48.9705 34.7754 48.9705 34.7754" stroke="black" stroke-linecap="round" stroke-linejoin="round"/>
<path d="M27.8544 28.4844C31.7414 28.4844 34.8924 26.9196 34.8924 24.9893C34.8924 23.059 31.7414 21.4941 27.8544 21.4941C23.9674 21.4941 20.8164 23.059 20.8164 24.9893C20.8164 26.9196 23.9674 28.4844 27.8544 28.4844Z" fill="white" stroke="black" stroke-linecap="round" stroke-linejoin="round"/>
<path d="M41.9325 38.2715C45.8195 38.2715 48.9705 36.7067 48.9705 34.7764C48.9705 32.8461 45.8195 31.2812 41.9325 31.2812C38.0455 31.2812 34.8945 32.8461 34.8945 34.7764C34.8945 36.7067 38.0455 38.2715 41.9325 38.2715Z" fill="white" stroke="black" stroke-linecap="round" stroke-linejoin="round"/>
</svg>
