<svg width="1920" height="403" viewBox="0 0 1920 403" fill="none" xmlns="http://www.w3.org/2000/svg">
<path d="M1919.96 402.93V0C1879.18 17.3502 1833.18 31.793 1786.55 43.3051C1742.25 54.231 1666.14 67.5484 1617.61 69.4007C1591.49 70.4089 1565.37 69.26 1539.21 70.5495C1514.23 71.7687 1489.46 74.1602 1465.15 77.5834C1404.85 86.1178 1377.62 95.4728 1326.09 114.675C1308.98 121.053 1288.71 125.742 1269.62 129.939C1244.21 135.519 1217.97 139.81 1191.18 142.834C1154.86 146.914 1117.4 148.813 1080.37 147.828C1047.93 146.961 1015.72 144.475 983.236 143.819C934.393 142.834 885.351 143.678 836.824 146.937C779.326 150.806 721.235 157.582 667.649 170.079C659.509 171.978 651.131 173.877 643.544 176.432C642.951 176.643 642.358 176.878 641.765 177.089C641.133 177.3 640.501 177.534 639.868 177.745C639.631 177.839 639.473 177.886 639.355 177.933C639.197 177.98 638.92 178.074 638.485 178.191C632.281 180.137 625.919 181.966 619.438 183.63C559.529 199.105 489.148 205.06 422.719 206.326C365.814 207.405 309.62 202.856 252.794 202.739C208.376 202.645 163.761 204.709 120.331 210.125C78.9166 215.283 35.1311 223.278 0 237.181V403H1920L1919.96 402.93Z" fill="#2C3DB8"/>
</svg>
