<svg width="72" height="72" viewBox="0 0 72 72" fill="none" xmlns="http://www.w3.org/2000/svg">
<path d="M35.5212 62.0423C50.1684 62.0423 62.0423 50.1684 62.0423 35.5212C62.0423 20.8739 50.1684 9 35.5212 9C20.8739 9 9 20.8739 9 35.5212C9 50.1684 20.8739 62.0423 35.5212 62.0423Z" fill="url(#paint0_linear_310_1843)"/>
<path d="M35.52 31.3954C39.219 31.3954 42.2177 28.3968 42.2177 24.6977C42.2177 20.9987 39.219 18 35.52 18C31.8209 18 28.8223 20.9987 28.8223 24.6977C28.8223 28.3968 31.8209 31.3954 35.52 31.3954Z" fill="#A0D2FA"/>
<path d="M35.5 55C43.002 55 49.407 50.8516 52 45C49.407 39.1484 43.002 35 35.5 35C27.998 35 21.593 39.1484 19 45C21.593 50.8516 27.998 55 35.5 55Z" fill="white"/>
<defs>
<linearGradient id="paint0_linear_310_1843" x1="35.5212" y1="9" x2="35.5212" y2="62.0423" gradientUnits="userSpaceOnUse">
<stop stop-color="#77ABF8"/>
<stop offset="1" stop-color="#3A76EF"/>
</linearGradient>
</defs>
</svg>
