<svg width="72" height="72" viewBox="0 0 72 72" fill="none" xmlns="http://www.w3.org/2000/svg">
<path d="M30.718 54.2388C44.3705 54.2388 55.438 43.1713 55.438 29.5188C55.438 15.8664 44.3705 4.79883 30.718 4.79883C17.0656 4.79883 5.99805 15.8664 5.99805 29.5188C5.99805 43.1713 17.0656 54.2388 30.718 54.2388Z" fill="url(#paint0_linear_310_1833)"/>
<path d="M60.298 34.1133C58.198 47.7333 46.93 58.3173 32.998 59.3613C36.418 63.8133 41.782 66.7053 47.83 66.7053C58.15 66.7053 66.526 58.3413 66.526 48.0093C66.526 42.4893 64.114 37.5333 60.31 34.1133H60.298Z" fill="#A0D2FA"/>
<path d="M43.1984 28.7843H40.4624L42.2504 21.9683C42.2744 21.8483 42.2504 21.7283 42.1784 21.6323C42.1064 21.5363 41.9984 21.4883 41.8784 21.4883H39.5864C39.4064 21.4883 39.2624 21.6083 39.2144 21.7763L37.4864 28.7843H34.1384L32.3504 21.7763C32.3024 21.6083 32.1584 21.4883 31.9784 21.4883H29.5184C29.3384 21.4883 29.1944 21.6083 29.1464 21.7763L27.3824 28.7843H24.0344L22.3064 21.7763C22.2704 21.6083 22.1144 21.4883 21.9344 21.4883H19.5224C19.4024 21.4883 19.2944 21.5483 19.2224 21.6323C19.1504 21.7283 19.1264 21.8483 19.1504 21.9683L20.9384 28.7843H18.2024C17.9864 28.7843 17.8184 28.9523 17.8184 29.1683V31.1243C17.8184 31.3403 17.9864 31.5083 18.2024 31.5083H21.6584L24.1304 40.8803C24.1784 41.0483 24.3224 41.1683 24.5024 41.1683H26.7944C26.9744 41.1683 27.1184 41.0483 27.1664 40.8803L29.5424 31.5083H31.8344L34.2104 40.8803C34.2584 41.0483 34.4024 41.1683 34.5824 41.1683H36.8744C37.0424 41.1683 37.1984 41.0483 37.2464 40.8803L39.7184 31.5083H43.1744C43.3904 31.5083 43.5584 31.3403 43.5584 31.1243V29.1683C43.5584 28.9523 43.3904 28.7843 43.1744 28.7843H43.1984ZM36.8384 31.5083L35.8544 35.5163L34.8344 31.5083H36.8264H36.8384ZM31.1744 28.7843H30.2624L30.7184 26.9843L31.1744 28.7843ZM26.7104 31.5083L25.7144 35.4923L24.7304 31.5083H26.6984H26.7104Z" fill="white"/>
<defs>
<linearGradient id="paint0_linear_310_1833" x1="30.718" y1="4.79883" x2="30.718" y2="54.2388" gradientUnits="userSpaceOnUse">
<stop stop-color="#77ABF8"/>
<stop offset="1" stop-color="#3A76EF"/>
</linearGradient>
</defs>
</svg>
