<svg width="72" height="72" viewBox="0 0 72 72" fill="none" xmlns="http://www.w3.org/2000/svg">
<path d="M52.8877 8.85547H18.0688C12.9815 8.85547 8.85742 12.9795 8.85742 18.0668V52.8858C8.85742 57.9731 12.9815 62.0971 18.0688 62.0971H52.8877C57.975 62.0971 62.0991 57.9731 62.0991 52.8858V18.0668C62.0991 12.9795 57.975 8.85547 52.8877 8.85547Z" fill="url(#paint0_linear_310_1854)"/>
<path d="M32.0026 26.9346H20.6196C19.7279 26.9346 19 26.2067 19 25.3149C19 24.4232 19.7279 23.6953 20.6196 23.6953H32.0026C32.8943 23.6953 33.6222 24.4232 33.6222 25.3149C33.6222 26.2067 32.8943 26.9346 32.0026 26.9346Z" fill="#A0D2FA"/>
<path d="M51.4101 23.696H47.3337V19.6196C47.3337 18.7279 46.6058 18 45.7141 18C44.8224 18 44.0945 18.7279 44.0945 19.6196V23.696H40.0181C39.1264 23.696 38.3984 24.4239 38.3984 25.3156C38.3984 26.2074 39.1264 26.9353 40.0181 26.9353H44.0945V31.0117C44.0945 31.9034 44.8224 32.6313 45.7141 32.6313C46.6058 32.6313 47.3337 31.9034 47.3337 31.0117V26.9353H51.4101C52.3018 26.9353 53.0297 26.2074 53.0297 25.3156C53.0297 24.4239 52.3018 23.696 51.4101 23.696Z" fill="white"/>
<path d="M40.0259 41.6397H51.4088C52.3005 41.6397 53.0284 40.9117 53.0284 40.02C53.0284 39.1283 52.3005 38.4004 51.4088 38.4004H40.0259C39.1342 38.4004 38.4062 39.1283 38.4062 40.02C38.4062 40.9117 39.1342 41.6397 40.0259 41.6397Z" fill="#A0D2FA"/>
<path d="M51.4088 46.3535H40.0259C39.1342 46.3535 38.4062 47.0814 38.4062 47.9731C38.4062 48.8649 39.1342 49.5928 40.0259 49.5928H51.4088C52.3005 49.5928 53.0284 48.8649 53.0284 47.9731C53.0284 47.0814 52.3005 46.3535 51.4088 46.3535Z" fill="#A0D2FA"/>
<path d="M28.1729 43.8383L31.8581 40.1532C32.4859 39.5253 32.4859 38.4971 31.8581 37.8693C31.2302 37.2415 30.202 37.2415 29.5742 37.8693L25.8891 41.5544L22.204 37.8693C21.5761 37.2415 20.5479 37.2415 19.9201 37.8693C19.2923 38.4971 19.2923 39.5253 19.9201 40.1532L23.6052 43.8383L19.9201 47.5234C19.2923 48.1513 19.2923 49.1794 19.9201 49.8073C20.2386 50.1257 20.648 50.2804 21.0666 50.2804C21.4851 50.2804 21.8946 50.1257 22.2131 49.8073L25.8982 46.1222L29.5833 49.8073C29.9018 50.1257 30.3112 50.2804 30.7298 50.2804C31.1483 50.2804 31.5578 50.1257 31.8763 49.8073C32.5041 49.1794 32.5041 48.1513 31.8763 47.5234L28.1912 43.8383H28.1729Z" fill="white"/>
<defs>
<linearGradient id="paint0_linear_310_1854" x1="35.4783" y1="8.85547" x2="35.4783" y2="62.0972" gradientUnits="userSpaceOnUse">
<stop stop-color="#77ABF8"/>
<stop offset="1" stop-color="#3A76EF"/>
</linearGradient>
</defs>
</svg>
