<svg width="72" height="72" viewBox="0 0 72 72" fill="none" xmlns="http://www.w3.org/2000/svg">
<path d="M35.5071 1.89411C35.5071 1.89411 12.002 1.03432 12.002 26.3222C12.002 26.3222 12.4698 33.9339 20.347 41.2674C20.347 41.2674 23.2045 43.4295 24.7597 49.6124C24.7597 49.6124 25.3793 51.8378 27.6931 51.8378H43.3084C45.6222 51.8378 46.2418 49.6124 46.2418 49.6124C47.7843 43.4295 50.6545 41.2674 50.6545 41.2674C58.5444 33.9339 58.9995 26.3222 58.9995 26.3222C59.0122 1.03432 35.5071 1.89411 35.5071 1.89411Z" fill="url(#paint0_linear_310_1869)"/>
<path d="M44.9411 55.7207H26.0764C26.0764 55.7207 24.3694 69.0221 35.5087 69.0221C46.6481 69.0221 44.9411 55.7207 44.9411 55.7207Z" fill="#A0D2FA"/>
<path d="M48.656 25.2364H45.7732L47.6572 18.0546C47.6825 17.9281 47.6571 17.8017 47.5813 17.7006C47.5054 17.5994 47.3916 17.5488 47.2652 17.5488H44.8502C44.6606 17.5488 44.5088 17.6753 44.4582 17.8523L42.6375 25.2364H39.1099L37.2259 17.8523C37.1753 17.6753 37.0236 17.5488 36.8339 17.5488H34.2419C34.0523 17.5488 33.9005 17.6753 33.85 17.8523L31.9913 25.2364H28.4636L26.6429 17.8523C26.605 17.6753 26.4406 17.5488 26.2509 17.5488H23.7095C23.5831 17.5488 23.4693 17.612 23.3934 17.7006C23.3176 17.8017 23.2923 17.9281 23.3176 18.0546L25.2015 25.2364H22.3187C22.0911 25.2364 21.9141 25.4134 21.9141 25.641V27.7019C21.9141 27.9295 22.0911 28.1065 22.3187 28.1065H25.9601L28.5648 37.9815C28.6154 38.1585 28.7671 38.2849 28.9568 38.2849H31.3718C31.5614 38.2849 31.7131 38.1585 31.7637 37.9815L34.2672 28.1065H36.6822L39.1857 37.9815C39.2363 38.1585 39.388 38.2849 39.5777 38.2849H41.9927C42.1697 38.2849 42.3341 38.1585 42.3846 37.9815L44.9893 28.1065H48.6308C48.8583 28.1065 49.0354 27.9295 49.0354 27.7019V25.641C49.0354 25.4134 48.8583 25.2364 48.6308 25.2364H48.656ZM41.9547 28.1065L40.9179 32.3296L39.8432 28.1065H41.9421H41.9547ZM35.9868 25.2364H35.0258L35.5063 23.3398L35.9868 25.2364ZM31.2832 28.1065L30.2338 32.3043L29.197 28.1065H31.2706H31.2832Z" fill="white"/>
<defs>
<linearGradient id="paint0_linear_310_1869" x1="35.5007" y1="1.89062" x2="35.5007" y2="51.8378" gradientUnits="userSpaceOnUse">
<stop stop-color="#77ABF8"/>
<stop offset="1" stop-color="#3A76EF"/>
</linearGradient>
</defs>
</svg>
